<?xml version="1.0" encoding="utf-8"?>
<!-- Svg Vector Icons : http://www.onlinewebfonts.com/icon -->
<!DOCTYPE svg PUBLIC "-//W3C//DTD SVG 1.1//EN" "http://www.w3.org/Graphics/SVG/1.1/DTD/svg11.dtd">
<svg version="1.1" xmlns="http://www.w3.org/2000/svg" xmlns:xlink="http://www.w3.org/1999/xlink" x="0px" y="0px" viewBox="0 0 1000 1000" enable-background="new 0 0 1000 1000" xml:space="preserve">
<metadata> Svg Vector Icons : http://www.onlinewebfonts.com/icon </metadata>
<g><g><g><path d="M10,990h980V10H10V990z M741.4,716.9c0,16.2-5.6,29.8-16.8,41.1c-11.2,11.2-24.7,16.8-40.5,16.8h-39.5v119.5c0,15.1-5.3,27.9-15.8,38.4c-10.5,10.5-23.3,15.8-38.4,15.8c-15.1,0-27.9-5.3-38.4-15.8c-10.5-10.5-15.8-23.3-15.8-38.4V774.9h-72.7v119.5c0,15.1-5.3,27.9-15.8,38.4c-10.5,10.5-23.3,15.8-38.4,15.8c-14.7,0-27.4-5.3-37.9-15.8c-10.5-10.5-15.8-23.3-15.8-38.4L355,774.9h-39c-16.1,0-29.8-5.6-41.1-16.8c-11.2-11.2-16.8-24.9-16.8-41.1V366.3h483.3L741.4,716.9L741.4,716.9z M762.4,410c0-15.1,5.3-27.8,15.8-38.2c10.5-10.3,23.2-15.5,37.9-15.5c15.1,0,27.9,5.2,38.4,15.5c10.5,10.4,15.8,23.1,15.8,38.2v226.4c0,15.1-5.3,27.9-15.8,38.4c-10.5,10.5-23.3,15.8-38.4,15.8c-14.7,0-27.4-5.3-37.9-15.8c-10.5-10.5-15.8-23.3-15.8-38.4V410z M289.7,233.9c22.5-34.6,52.6-61.5,90.5-80.8l-37.4-69c-2.5-4.6-1.6-8.1,2.6-10.5c4.6-2.1,8.1-1,10.5,3.2l37.9,69.5c33.3-14.7,68.6-22.1,105.8-22.1c37.2,0,72.5,7.4,105.8,22.1l37.9-69.5c2.5-4.2,6-5.3,10.5-3.2c4.2,2.5,5.1,6,2.6,10.5l-37.4,69c37.5,19.3,67.6,46.2,90,80.8c22.5,34.6,33.7,72.4,33.7,113.5H256C256,306.3,267.2,268.5,289.7,233.9z M129.1,410c0-14.7,5.3-27.4,15.8-37.9c10.5-10.5,23.3-15.8,38.4-15.8c14.7,0,27.4,5.3,37.9,15.8c10.5,10.5,15.8,23.2,15.8,37.9v226.4c0,15.1-5.2,27.9-15.5,38.4c-10.4,10.5-23.1,15.8-38.2,15.8c-15.1,0-27.9-5.3-38.4-15.8c-10.5-10.5-15.8-23.3-15.8-38.4L129.1,410L129.1,410z"/><path d="M388.7,218.4c-5.6,0-10.4,2-14.2,6c-3.9,4.1-5.8,8.9-5.8,14.5c0,5.6,1.9,10.4,5.8,14.5c3.9,4.1,8.6,6.1,14.2,6.1c5.6,0,10.4-2,14.5-6.1c4-4,6-8.8,6-14.5c0-5.6-2-10.4-6-14.5C399.1,220.4,394.3,218.4,388.7,218.4z"/><path d="M610.8,218.4c-5.6,0-10.5,2-14.5,6c-4,4.1-6,8.9-6,14.5c0,5.6,2,10.4,6,14.5c4,4.1,8.9,6.1,14.5,6.1c5.6,0,10.3-2,14.2-6.1c3.9-4,5.8-8.8,5.8-14.5c0-5.6-1.9-10.4-5.8-14.5C621.2,220.4,616.4,218.4,610.8,218.4z"/></g></g><g></g><g></g><g></g><g></g><g></g><g></g><g></g><g></g><g></g><g></g><g></g><g></g><g></g><g></g><g></g></g>
</svg>